HIERARCHY
ROOT Hips
{
	OFFSET 0.00 0.00 0.00
	CHANNELS 6 Xposition Yposition Zposition Xrotation Yrotation Zrotation
	JOINT LeftUpLeg
	{
		OFFSET 3.10215 0.00000 0.00000
		CHANNELS 3 Xrotation Yrotation Zrotation
		JOINT LeftLeg
		{
			OFFSET 0.00000 -16.83331 0.00000
			CHANNELS 3 Xrotation Yrotation Zrotation
			JOINT LeftFoot
			{
				OFFSET 0.00000 -15.53879 0.00000
				CHANNELS 3 Xrotation Yrotation Zrotation
				JOINT LeftToeBase
				{
					OFFSET 0.00000 -1.57366 5.87297
					CHANNELS 3 Xrotation Yrotation Zrotation
					End Site
					{
						OFFSET 0.00000 0.00000 2.95275
					}
				}
			}
		}
	}
	JOINT RightUpLeg
	{
		OFFSET -3.10215 0.00000 0.00000
		CHANNELS 3 Xrotation Yrotation Zrotation
		JOINT RightLeg
		{
			OFFSET 0.00000 -16.83331 0.00000
			CHANNELS 3 Xrotation Yrotation Zrotation
			JOINT RightFoot
			{
				OFFSET 0.00000 -15.53879 0.00000
				CHANNELS 3 Xrotation Yrotation Zrotation
				JOINT RightToeBase
				{
					OFFSET 0.00000 -1.57366 5.87297
					CHANNELS 3 Xrotation Yrotation Zrotation
					End Site
					{
						OFFSET 0.00000 0.00000 2.95275
					}
				}
			}
		}
	}
	JOINT Spine
	{
		OFFSET 0.00000 0.03937 0.00000
		CHANNELS 3 Xrotation Yrotation Zrotation
		JOINT Spine1
		{
			OFFSET 0.00000 8.31046 0.00000
			CHANNELS 3 Xrotation Yrotation Zrotation
			JOINT Neck
			{
				OFFSET 0.00000 6.25463 0.00000
				CHANNELS 3 Xrotation Yrotation Zrotation
				JOINT Head
				{
					OFFSET 0.00000 8.60817 0.00000
					CHANNELS 3 Xrotation Yrotation Zrotation
					End Site
					{
						OFFSET 0.00000 4.52755 0.00000
					}
				}
			}
			JOINT LeftShoulder
			{
				OFFSET 0.00000 6.25463 0.00000
				CHANNELS 3 Xrotation Yrotation Zrotation
				JOINT LeftArm
				{
					OFFSET 7.44857 -0.00003 0.00000
					CHANNELS 3 Xrotation Yrotation Zrotation
					JOINT LeftForeArm
					{
						OFFSET 10.73545 -0.00004 0.00000
						CHANNELS 3 Xrotation Yrotation Zrotation
						JOINT LeftHand
						{
							OFFSET 10.15840 -0.00004 0.00000
							CHANNELS 3 Xrotation Yrotation Zrotation
							JOINT LeftHandThumb
							{
								OFFSET 0.00000 0.00000 0.00000
								CHANNELS 3 Xrotation Yrotation Zrotation
								End Site
								{
									OFFSET 0.00000 0.00000 3.93700
								}
							}
							JOINT L_Wrist_End
							{
								OFFSET 3.93700 -0.00001 0.00000
								CHANNELS 3 Xrotation Yrotation Zrotation
							}
						}
					}
				}
			}
			JOINT RightShoulder
			{
				OFFSET 0.00000 6.25463 0.00000
				CHANNELS 3 Xrotation Yrotation Zrotation
				JOINT RightArm
				{
					OFFSET -7.44857 -0.00003 0.00000
					CHANNELS 3 Xrotation Yrotation Zrotation
					JOINT RightForeArm
					{
						OFFSET -10.73545 -0.00004 0.00000
						CHANNELS 3 Xrotation Yrotation Zrotation
						JOINT RightHand
						{
							OFFSET -10.15840 -0.00004 0.00000
							CHANNELS 3 Xrotation Yrotation Zrotation
							JOINT RightHandThumb
							{
								OFFSET 0.00000 0.00000 0.00000
								CHANNELS 3 Xrotation Yrotation Zrotation
								End Site
								{
									OFFSET 0.00000 0.00000 3.93700
								}
							}
							JOINT R_Wrist_End
							{
								OFFSET -5.39369 -0.00002 0.00000
								CHANNELS 3 Xrotation Yrotation Zrotation
							}
						}
					}
				}
			}
		}
	}
}
MOTION
Frames: 17
Frame Time: 0.008333
 -142.3705 31.1896 -1.7918 164.1672 54.9571 -168.6701 -18.7817 -10.0975 6.7184 45.8634 -0.0000 0.0000 -36.2637 -2.3969 -35.4436 -1.3981 -0.0000 -0.0000 -26.4744 -4.8189 6.7805 58.1278 0.0000 0.0000 -33.8402 -4.7850 -7.7049 -0.3377 -0.0000 0.0000 -3.4892 1.8378 -0.2303 3.9985 0.4700 -0.7713 19.1790 8.7432 3.9207 -17.9858 -16.4058 0.1931 18.5619 -8.2045 23.8533 -8.2668 -8.0345 -92.1129 -0.0001 -25.9508 -0.0000 -22.2677 3.7180 -3.5037 0.0000 -0.0000 0.0000 0.0000 -0.0000 0.0000 18.3445 0.9520 -17.2937 -17.7609 13.9018 94.0339 -0.0004 59.1697 0.0002 -49.5290 20.0592 25.9375 0.0000 0.0000 0.0000 0.0000 0.0000 0.0000
 -142.4044 31.0480 -1.8913 163.8056 56.2068 -168.2293 -18.6214 -8.6274 6.7433 46.2780 0.0000 0.0000 -37.4487 -2.0206 -34.9370 -0.7247 -0.0000 0.0000 -26.4876 -5.2831 6.7308 58.9739 -0.0000 0.0000 -34.5723 -4.7002 -8.4300 -0.1715 -0.0000 0.0000 -3.5515 1.7950 -0.1736 3.8678 0.4221 -0.8305 18.9161 8.9934 3.7102 -17.3876 -16.3959 0.0730 18.0822 -8.2598 23.6211 -7.7873 -8.6458 -91.7376 -0.0001 -26.2337 -0.0000 -20.8487 3.9658 -2.9940 0.0000 -0.0000 -0.0000 0.0000 -0.0000 -0.0000 18.7430 0.7628 -17.6521 -17.8172 13.8682 94.1425 -0.0004 59.1851 0.0002 -48.7994 22.2105 24.1167 -0.0000 -0.0000 -0.0000 -0.0000 -0.0000 -0.0000
 -142.4282 30.9688 -1.9765 163.3299 57.4903 -167.6994 -18.3901 -6.9985 6.8244 46.3445 -0.0000 -0.0000 -38.1974 -1.6397 -34.2056 -0.4352 0.0000 0.0000 -26.2197 -5.6836 6.5584 58.8098 -0.0000 0.0000 -35.3860 -4.2203 -8.5104 0.9231 -0.0000 0.0000 -3.5739 1.8143 -0.1556 3.6628 0.4453 -0.8306 18.6844 9.1956 3.5850 -16.9728 -16.3324 -0.1857 17.8325 -8.2219 23.4710 -7.4941 -9.4327 -91.3717 -0.0001 -26.6870 -0.0000 -19.2520 4.4307 -2.5636 -0.0000 0.0000 0.0000 -0.0000 0.0000 0.0000 18.9160 0.3376 -17.8218 -17.7594 13.9592 94.2151 -0.0004 59.1446 0.0002 -46.9606 23.8400 22.0138 0.0000 0.0000 0.0000 0.0000 0.0000 0.0000
 -142.4543 30.9462 -2.0842 162.7971 58.7155 -166.6847 -18.0009 -5.5137 6.3494 45.9428 -0.0000 -0.0000 -38.4856 -1.1091 -33.3362 -0.0683 0.0000 -0.0000 -25.9591 -5.6461 5.8693 58.4085 -0.0000 0.0000 -35.9473 -3.2402 -8.4742 1.0910 -0.0000 0.0000 -3.8357 1.7695 -0.2130 3.8420 0.3822 -1.3129 18.3782 9.6759 3.5279 -16.6481 -16.3859 -0.4265 17.8380 -7.7391 23.4865 -7.6654 -10.4114 -91.0341 -0.0001 -27.2665 -0.0000 -17.8204 4.9513 -1.8731 0.0000 0.0000 -0.0000 0.0000 0.0000 -0.0000 18.8855 0.2728 -18.0305 -17.5916 14.1613 94.2329 -0.0003 58.9611 0.0002 -44.7637 25.5830 19.5712 -0.0000 -0.0000 -0.0000 -0.0000 -0.0000 -0.0000
 -142.4380 30.9741 -2.1756 162.4924 59.8274 -166.2300 -17.3957 -4.4823 6.2738 45.4233 -0.0000 0.0000 -38.4350 -0.8224 -32.8197 -0.5787 0.0000 -0.0000 -25.3785 -5.6715 5.5591 57.7062 -0.0000 0.0000 -36.2238 -2.3093 -7.9356 1.7604 0.0000 -0.0000 -3.8958 1.7270 -0.2230 3.7242 0.3490 -1.3497 18.2634 9.9744 3.4110 -16.4284 -16.4381 -0.6307 17.8351 -7.6346 23.4873 -7.3400 -10.6011 -90.9560 -0.0001 -28.1291 -0.0000 -15.7338 5.3729 -1.0896 0.0000 0.0000 0.0000 0.0000 0.0000 0.0000 18.7564 0.1651 -18.2129 -16.8998 14.3699 94.0819 -0.0004 59.0031 0.0002 -42.0520 26.8504 16.9329 -0.0000 0.0000 -0.0000 -0.0000 0.0000 -0.0000
 -142.4029 31.0494 -2.2779 162.4072 60.9109 -165.8604 -16.4909 -3.7778 6.0082 44.5482 -0.0000 -0.0000 -38.0700 -0.4479 -32.4294 -0.7991 0.0000 -0.0000 -24.7152 -5.5280 5.0857 57.0687 -0.0000 0.0000 -36.0538 -1.2303 -7.1924 1.5613 0.0000 0.0000 -3.7621 1.6775 -0.2188 3.4074 0.3012 -1.5821 18.1758 10.1433 3.4887 -16.1896 -16.2561 -0.9798 17.8879 -7.3776 23.4997 -6.7917 -10.1092 -91.0982 -0.0001 -29.3608 -0.0000 -13.4397 5.9037 -0.2355 -0.0000 0.0000 0.0000 -0.0000 0.0000 0.0000 18.9619 -0.1290 -18.2522 -16.4473 14.8880 93.8272 -0.0004 59.0008 0.0002 -39.0637 27.8839 14.3065 0.0000 0.0000 0.0000 0.0000 0.0000 0.0000
 -142.3479 31.1746 -2.3585 161.9096 61.9319 -165.3609 -15.6906 -3.2637 5.9908 43.4615 0.0000 0.0000 -37.3680 -0.0921 -32.2049 -1.1715 -0.0000 0.0000 -24.2361 -5.1846 4.9019 56.3202 -0.0000 0.0000 -35.3420 -0.1517 -6.2320 1.0609 0.0000 0.0000 -3.8675 1.6168 -0.1981 3.1742 0.2456 -1.5635 18.0599 10.2418 3.4965 -15.9485 -16.0343 -1.0717 18.0519 -7.0771 23.5871 -6.3273 -10.4435 -91.1919 -0.0001 -30.6860 -0.0000 -12.4750 6.2730 1.2235 -0.0000 0.0000 -0.0000 -0.0000 0.0000 -0.0000 19.0755 -0.2970 -18.2877 -15.7337 15.3877 93.3885 -0.0004 59.1452 0.0002 -36.2524 28.3335 12.0144 0.0000 0.0000 -0.0000 0.0000 0.0000 -0.0000
 -142.2433 31.3510 -2.4435 162.1695 63.0334 -165.5797 -14.2613 -2.8057 6.0219 41.9590 -0.0000 0.0000 -36.3526 0.2914 -31.9395 -1.6897 0.0000 0.0000 -23.2473 -4.7468 4.7953 55.3571 0.0000 -0.0000 -34.3099 1.0077 -5.4930 0.5371 -0.0000 0.0000 -3.9613 1.5772 -0.3084 3.4239 0.2459 -1.2662 17.8899 10.5194 3.4892 -15.8730 -16.0353 -1.2460 18.0798 -6.9705 23.6649 -5.7765 -10.2203 -91.5171 -0.0001 -31.9060 -0.0000 -12.1007 6.2035 2.1362 -0.0000 -0.0000 0.0000 -0.0000 -0.0000 0.0000 19.0600 -0.4512 -18.3080 -14.8923 15.7466 92.8394 -0.0004 59.2144 0.0002 -34.0587 28.5065 10.6052 0.0000 0.0000 -0.0000 0.0000 0.0000 -0.0000
 -142.1258 31.5688 -2.5058 162.2432 64.1221 -165.7884 -12.7982 -2.3195 6.2467 40.1491 -0.0000 0.0000 -35.0593 0.6347 -31.7931 -2.2547 -0.0000 -0.0000 -22.3320 -4.2591 4.8794 54.2345 -0.0000 0.0000 -32.8649 2.1542 -4.6011 -0.1895 0.0000 -0.0000 -3.8668 1.5036 -0.3962 3.1974 0.2191 -0.8783 17.8587 10.8425 3.5251 -15.7826 -15.9903 -1.4143 18.2578 -6.6081 23.8092 -5.3804 -9.2809 -92.2778 -0.0001 -32.7554 -0.0000 -12.1174 5.4918 1.9963 -0.0000 0.0000 0.0000 -0.0000 0.0000 0.0000 19.2418 -0.6193 -18.3266 -14.0667 16.1669 92.3066 -0.0004 59.1491 0.0002 -32.6330 28.5320 9.8927 0.0000 0.0000 0.0000 0.0000 0.0000 0.0000
 -141.9860 31.8291 -2.5611 162.2278 65.2402 -165.9463 -11.1850 -1.7528 6.5164 37.9800 0.0000 -0.0000 -33.4086 0.9323 -31.6566 -2.8604 -0.0000 0.0000 -21.3657 -3.7650 4.9949 52.8648 -0.0000 0.0000 -31.0797 3.3375 -3.7092 -1.0384 0.0000 -0.0000 -4.0111 1.5137 -0.4435 3.2953 0.2611 -0.5212 17.8200 11.0536 3.6133 -15.8270 -15.9260 -1.6066 18.4481 -6.2719 23.9752 -5.0855 -8.9350 -92.8631 -0.0001 -33.5951 -0.0000 -12.3317 5.0950 2.6756 -0.0000 0.0000 0.0000 -0.0000 0.0000 0.0000 19.2916 -0.7488 -18.3708 -13.1526 16.3499 91.8972 -0.0003 58.9239 0.0002 -32.0606 28.4944 10.0384 -0.0000 0.0000 -0.0000 -0.0000 0.0000 -0.0000
 -141.8385 32.1216 -2.6077 162.3592 66.3767 -166.1919 -9.4077 -1.1768 6.7043 35.5791 -0.0000 0.0000 -31.3658 1.2915 -31.6050 -3.5466 0.0000 -0.0000 -20.3370 -3.2830 5.0389 51.4231 0.0000 0.0000 -29.0064 4.5767 -2.5723 -1.9651 -0.0000 -0.0000 -3.8937 1.5035 -0.5148 3.0325 0.2757 -0.2525 17.8334 11.3713 3.6627 -15.6220 -15.8997 -1.5333 18.6211 -5.9375 24.1538 -4.5476 -8.2597 -93.5714 -0.0001 -34.3585 -0.0000 -13.4755 4.3418 1.8785 0.0000 -0.0000 0.0000 0.0000 -0.0000 0.0000 19.3467 -0.7978 -18.4224 -12.0954 16.5122 91.5868 -0.0003 58.5223 0.0002 -32.2872 28.4269 10.7294 -0.0000 -0.0000 -0.0000 -0.0000 -0.0000 -0.0000
 -141.6946 32.4326 -2.6591 161.6664 67.3821 -165.5533 -8.0419 -0.5641 6.7150 33.2538 0.0000 0.0000 -29.0416 1.7238 -31.4873 -3.7637 0.0000 0.0000 -19.7153 -2.9572 4.8722 50.0648 0.0000 -0.0000 -27.0182 5.9012 -1.3631 -1.3200 -0.0000 0.0000 -3.9753 1.4544 -0.6349 2.5358 0.2372 -0.1596 17.8808 11.4377 3.8314 -15.2558 -15.5638 -1.3614 18.8243 -5.4481 24.4385 -4.0412 -8.2676 -94.2140 -0.0001 -35.0528 -0.0000 -14.8085 3.8121 1.3577 0.0000 0.0000 -0.0000 0.0000 0.0000 -0.0000 19.5536 -0.9081 -18.0735 -10.7724 17.1762 90.8040 -0.0003 58.6573 0.0002 -32.7137 28.4705 10.1823 -0.0000 0.0000 -0.0000 -0.0000 0.0000 -0.0000
 -141.5454 32.7679 -2.7061 161.0290 68.3169 -164.9793 -6.6329 -0.2201 6.6303 30.8920 -0.0000 0.0000 -26.3467 2.3955 -31.3627 -4.7362 -0.0000 0.0000 -18.9777 -2.6796 4.6833 48.4723 -0.0000 0.0000 -24.7443 7.1811 -0.2009 -1.8667 0.0000 0.0000 -4.1177 1.3989 -0.7302 2.1848 0.1920 -0.0135 18.0075 11.6539 3.8549 -15.0683 -15.4184 -1.1247 19.0645 -5.0053 24.7022 -3.6671 -8.1257 -94.8894 -0.0002 -35.6180 -0.0000 -16.2972 3.4920 0.1765 0.0000 -0.0000 0.0000 0.0000 -0.0000 0.0000 19.7153 -1.0769 -17.9079 -9.5747 17.6444 90.2936 -0.0003 58.5393 0.0002 -33.5393 28.2625 9.9689 0.0000 0.0000 -0.0000 0.0000 0.0000 -0.0000
 -141.3307 33.1222 -2.7434 162.2030 69.1562 -166.4819 -4.6313 0.0699 7.0040 28.6317 -0.0000 0.0000 -23.4082 2.8445 -31.3187 -6.0203 0.0000 0.0000 -17.2910 -2.7652 4.8283 46.4632 -0.0000 0.0000 -22.5237 8.4088 1.1766 -1.8621 -0.0000 -0.0000 -4.5664 1.1958 -1.0091 3.1548 0.0581 1.2085 17.6997 12.1902 3.5518 -14.4120 -15.6079 -1.1545 18.9250 -5.0789 24.5879 -3.1811 -7.2494 -95.7382 -0.0002 -36.0737 -0.0000 -17.1527 3.3956 -1.3732 -0.0000 0.0000 -0.0000 -0.0000 0.0000 -0.0000 19.1724 -0.7123 -18.4740 -7.7783 17.1450 90.1157 -0.0003 58.3534 0.0002 -34.2731 28.1723 10.1359 -0.0000 -0.0000 0.0000 -0.0000 -0.0000 0.0000
 -141.1817 33.4762 -2.7741 161.7612 69.7443 -166.0982 -3.5447 0.0770 6.8866 26.6936 -0.0000 0.0000 -20.1735 3.4892 -31.3558 -7.4001 -0.0000 -0.0000 -16.4914 -2.7275 4.5606 44.7322 -0.0000 0.0000 -20.7042 9.2734 2.7056 -1.1880 0.0000 -0.0000 -4.4362 0.9979 -1.0751 2.3481 -0.1344 1.2766 18.1186 12.2702 3.6824 -14.4827 -15.3790 -1.2238 19.1209 -4.6634 24.7931 -2.6719 -7.8067 -96.1785 -0.0002 -36.6027 -0.0001 -18.8336 3.5662 -2.5686 -0.0000 -0.0000 -0.0000 -0.0000 -0.0000 -0.0000 19.7168 -1.0732 -18.3618 -6.9571 17.7006 89.7661 -0.0003 57.8874 0.0002 -34.6332 28.2360 9.7568 0.0000 -0.0000 -0.0000 0.0000 -0.0000 -0.0000
 -141.0242 33.8281 -2.8042 161.5786 70.3019 -165.9792 -2.5448 0.1378 6.8386 25.0431 -0.0000 0.0000 -16.8217 3.9600 -31.3860 -9.0253 -0.0000 -0.0000 -15.5323 -2.6828 4.3121 42.8949 0.0000 -0.0000 -19.3378 9.7641 5.2017 0.4114 -0.0000 0.0000 -4.3675 0.8740 -1.1284 1.8213 -0.2500 1.4728 18.1865 12.3039 3.7316 -14.0315 -15.3318 -1.1489 19.3894 -4.3161 25.0205 -2.5361 -8.1176 -96.7199 -0.0002 -36.8653 -0.0001 -20.1695 3.5700 -4.3526 -0.0000 0.0000 0.0000 -0.0000 0.0000 0.0000 19.9572 -1.2282 -18.4897 -5.7325 17.6980 89.7538 -0.0003 57.5693 0.0002 -33.4297 28.6322 8.0513 -0.0000 -0.0000 -0.0000 -0.0000 -0.0000 -0.0000
 -140.8796 34.1781 -2.8372 161.3526 70.6420 -165.7345 -1.8095 -0.1825 6.6832 23.7421 -0.0000 0.0000 -13.6555 4.6106 -31.5491 -7.9489 -0.0000 0.0000 -14.6737 -2.7160 3.9832 41.0754 -0.0000 0.0000 -18.2169 9.9583 7.2025 3.1453 -0.0000 -0.0000 -4.4925 0.7404 -1.1361 1.6153 -0.3875 1.5707 18.2048 12.4656 3.5987 -13.6972 -15.5864 -0.9261 19.3959 -4.3413 25.2163 -2.2214 -8.4577 -97.1039 -0.0002 -37.1760 -0.0001 -21.3407 3.7805 -6.1030 0.0000 0.0000 0.0000 0.0000 0.0000 0.0000 20.0352 -1.3066 -18.7569 -4.6051 17.3336 90.0435 -0.0003 57.0198 0.0002 -32.8649 28.8267 7.5403 -0.0000 0.0000 -0.0000 -0.0000 0.0000 -0.0000
